<svg width="16" height="17" viewBox="0 0 16 17" fill="none" xmlns="http://www.w3.org/2000/svg">
<g clip-path="url(#clip0_435_536)">
<path d="M5.41001 11.09C5.74977 11.4306 6.15349 11.7007 6.59796 11.8848C7.04244 12.0689 7.51892 12.1633 8.00001 12.1627C10.023 12.1627 11.6627 10.5227 11.6627 8.50001C11.6627 6.47734 10.0227 4.83734 8.00001 4.83734C5.97734 4.83734 4.33734 6.47734 4.33734 8.50001V9.21301" stroke="white" stroke-linecap="round" stroke-linejoin="round"/>
<path d="M3.68768 8.56335L4.33735 9.21301L4.98668 8.56335M8.00002 5.98468V8.50001L9.15235 9.65235" stroke="white" stroke-linecap="round" stroke-linejoin="round"/>
<path d="M7.99998 15.6666C11.958 15.6666 15.1666 12.458 15.1666 8.49998C15.1666 4.54194 11.958 1.33331 7.99998 1.33331C4.04194 1.33331 0.833313 4.54194 0.833313 8.49998C0.833313 12.458 4.04194 15.6666 7.99998 15.6666Z" stroke="white" stroke-linecap="round" stroke-linejoin="round"/>
</g>
<defs>
<clipPath id="clip0_435_536">
<rect width="16" height="16" fill="white" transform="translate(0 0.5)"/>
</clipPath>
</defs>
</svg>
