<svg width="13" height="12" viewBox="0 0 13 12" fill="none" xmlns="http://www.w3.org/2000/svg">
<path d="M0.5 1.002C0.500007 0.818604 0.550447 0.63874 0.645805 0.482084C0.741162 0.325428 0.877764 0.198011 1.04067 0.113772C1.20357 0.0295319 1.38651 -0.0082869 1.56946 0.00445199C1.75241 0.0171909 1.92834 0.0799969 2.078 0.186L9.078 5.149C9.20803 5.24095 9.31422 5.36262 9.38773 5.50389C9.46125 5.64516 9.49996 5.80195 9.50064 5.9612C9.50133 6.12045 9.46397 6.27756 9.39167 6.41946C9.31938 6.56136 9.21424 6.68394 9.085 6.777L2.085 11.814C1.93567 11.9217 1.75949 11.9861 1.5759 12.0001C1.3923 12.0141 1.20841 11.9771 1.04449 11.8932C0.880577 11.8093 0.742999 11.6818 0.646924 11.5248C0.550849 11.3677 0.500006 11.1871 0.5 11.003V1.002ZM12.5 0.5C12.5 0.367392 12.4473 0.240215 12.3536 0.146447C12.2598 0.0526785 12.1326 0 12 0C11.8674 0 11.7402 0.0526785 11.6464 0.146447C11.5527 0.240215 11.5 0.367392 11.5 0.5V11.5C11.5 11.6326 11.5527 11.7598 11.6464 11.8536C11.7402 11.9473 11.8674 12 12 12C12.1326 12 12.2598 11.9473 12.3536 11.8536C12.4473 11.7598 12.5 11.6326 12.5 11.5V0.5Z" fill="white"/>
</svg>
