<svg width="26" height="27" viewBox="0 0 26 27" fill="none" xmlns="http://www.w3.org/2000/svg">
<g filter="url(#filter0_d_212_700)">
<path fill-rule="evenodd" clip-rule="evenodd" d="M4.3335 4.54175C4.3335 3.51403 4.67591 2.52841 5.2854 1.80171C5.89489 1.07501 6.72154 0.666748 7.5835 0.666748H8.66683C9.52878 0.666748 10.3554 1.07501 10.9649 1.80171C11.5744 2.52841 11.9168 3.51403 11.9168 4.54175V17.4584C11.9168 18.4861 11.5744 19.4718 10.9649 20.1985C10.3554 20.9252 9.52878 21.3334 8.66683 21.3334H7.5835C6.72154 21.3334 5.89489 20.9252 5.2854 20.1985C4.67591 19.4718 4.3335 18.4861 4.3335 17.4584V4.54175ZM17.3335 0.666748C16.4715 0.666748 15.6449 1.07501 15.0354 1.80171C14.4259 2.52841 14.0835 3.51403 14.0835 4.54175V17.4584C14.0835 18.4861 14.4259 19.4718 15.0354 20.1985C15.6449 20.9252 16.4715 21.3334 17.3335 21.3334H18.4168C19.2788 21.3334 20.1054 20.9252 20.7149 20.1985C21.3244 19.4718 21.6668 18.4861 21.6668 17.4584V4.54175C21.6668 3.51403 21.3244 2.52841 20.7149 1.80171C20.1054 1.07501 19.2788 0.666748 18.4168 0.666748H17.3335Z" fill="white"/>
</g>
<defs>
<filter id="filter0_d_212_700" x="0.333496" y="0.666748" width="25.3335" height="28.6667" filterUnits="userSpaceOnUse" color-interpolation-filters="sRGB">
<feFlood flood-opacity="0" result="BackgroundImageFix"/>
<feColorMatrix in="SourceAlpha" type="matrix" values="0 0 0 0 0 0 0 0 0 0 0 0 0 0 0 0 0 0 127 0" result="hardAlpha"/>
<feOffset dy="4"/>
<feGaussianBlur stdDeviation="2"/>
<feComposite in2="hardAlpha" operator="out"/>
<feColorMatrix type="matrix" values="0 0 0 0 0 0 0 0 0 0 0 0 0 0 0 0 0 0 0.25 0"/>
<feBlend mode="normal" in2="BackgroundImageFix" result="effect1_dropShadow_212_700"/>
<feBlend mode="normal" in="SourceGraphic" in2="effect1_dropShadow_212_700" result="shape"/>
</filter>
</defs>
</svg>
