<svg width="13" height="12" viewBox="0 0 13 12" fill="none" xmlns="http://www.w3.org/2000/svg">
<path d="M12.5 10.998C12.5 11.1814 12.4496 11.3613 12.3542 11.5179C12.2588 11.6746 12.1222 11.802 11.9593 11.8862C11.7964 11.9705 11.6135 12.0083 11.4305 11.9955C11.2476 11.9828 11.0717 11.92 10.922 11.814L3.922 6.851C3.79197 6.75905 3.68578 6.63738 3.61227 6.49611C3.53875 6.35484 3.50004 6.19805 3.49936 6.0388C3.49867 5.87955 3.53603 5.72244 3.60833 5.58054C3.68062 5.43864 3.78576 5.31606 3.915 5.223L10.915 0.186C11.0643 0.0782853 11.2405 0.0138926 11.4241 -8.2016e-05C11.6077 -0.0140566 11.7916 0.0229297 11.9555 0.106801C12.1194 0.190672 12.257 0.318172 12.3531 0.475246C12.4492 0.632321 12.5 0.812872 12.5 0.997L12.5 10.998ZM0.5 11.5C0.5 11.6326 0.552678 11.7598 0.646446 11.8536C0.740214 11.9473 0.867392 12 1 12C1.13261 12 1.25979 11.9473 1.35355 11.8536C1.44732 11.7598 1.5 11.6326 1.5 11.5L1.5 0.5C1.5 0.367392 1.44732 0.240214 1.35355 0.146446C1.25979 0.052678 1.13261 0 1 0C0.867392 0 0.740214 0.052678 0.646446 0.146446C0.552678 0.240214 0.5 0.367392 0.5 0.5L0.5 11.5Z" fill="white"/>
</svg>
