<svg width="34" height="24" viewBox="0 0 34 24" fill="none" xmlns="http://www.w3.org/2000/svg">
<path d="M0.3125 1C0.3125 0.75136 0.411272 0.512903 0.587087 0.337087C0.762903 0.161272 1.00136 0.0625 1.25 0.0625H28.75C28.9986 0.0625 29.2371 0.161272 29.4129 0.337087C29.5887 0.512903 29.6875 0.75136 29.6875 1C29.6875 1.24864 29.5887 1.4871 29.4129 1.66291C29.2371 1.83873 28.9986 1.9375 28.75 1.9375H1.25C1.00136 1.9375 0.762903 1.83873 0.587087 1.66291C0.411272 1.4871 0.3125 1.24864 0.3125 1ZM16.25 10.0625H1.25C1.00136 10.0625 0.762903 10.1613 0.587087 10.3371C0.411272 10.5129 0.3125 10.7514 0.3125 11C0.3125 11.2486 0.411272 11.4871 0.587087 11.6629C0.762903 11.8387 1.00136 11.9375 1.25 11.9375H16.25C16.4986 11.9375 16.7371 11.8387 16.9129 11.6629C17.0887 11.4871 17.1875 11.2486 17.1875 11C17.1875 10.7514 17.0887 10.5129 16.9129 10.3371C16.7371 10.1613 16.4986 10.0625 16.25 10.0625ZM16.25 20.0625H1.25C1.00136 20.0625 0.762903 20.1613 0.587087 20.3371C0.411272 20.5129 0.3125 20.7514 0.3125 21C0.3125 21.2486 0.411272 21.4871 0.587087 21.6629C0.762903 21.8387 1.00136 21.9375 1.25 21.9375H16.25C16.4986 21.9375 16.7371 21.8387 16.9129 21.6629C17.0887 21.4871 17.1875 21.2486 17.1875 21C17.1875 20.7514 17.0887 20.5129 16.9129 20.3371C16.7371 20.1613 16.4986 20.0625 16.25 20.0625ZM33.4375 16C33.4376 16.1591 33.3971 16.3155 33.3201 16.4546C33.243 16.5938 33.1318 16.711 32.9969 16.7953L22.9969 23.0453C22.8549 23.134 22.6918 23.1831 22.5245 23.1875C22.3572 23.1919 22.1918 23.1514 22.0454 23.0702C21.899 22.9891 21.777 22.8702 21.6921 22.7259C21.6072 22.5817 21.5624 22.4174 21.5625 22.25V9.75C21.5624 9.58262 21.6072 9.41829 21.6921 9.27405C21.777 9.12982 21.899 9.01095 22.0454 8.92978C22.1918 8.84862 22.3572 8.80813 22.5245 8.81251C22.6918 8.81689 22.8549 8.86598 22.9969 8.95469L32.9969 15.2047C33.1318 15.289 33.243 15.4062 33.3201 15.5454C33.3971 15.6845 33.4376 15.8409 33.4375 16ZM30.7312 16L23.4375 11.4422V20.5578L30.7312 16Z" fill="white"/>
</svg>
