<svg width="30" height="28" viewBox="0 0 30 28" fill="none" xmlns="http://www.w3.org/2000/svg">
<path d="M28.3333 9.00009C28.7416 9.00015 29.1356 9.15002 29.4406 9.42129C29.7457 9.69255 29.9406 10.0663 29.9883 10.4718L30 10.6668V19.0001C30 20.7105 29.3426 22.3555 28.1638 23.5948C26.985 24.8341 25.3749 25.5729 23.6667 25.6584L23.3333 25.6668H8.51167L8.47833 26.3584L8.42167 27.2234C8.37667 27.8001 7.835 28.1518 7.37 27.9068L6.86 27.6334L6.26 27.2951L5.93 27.1001L5.21333 26.6618C5.08557 26.5809 4.95835 26.4993 4.83167 26.4168L4.06 25.9001L3.71 25.6551L3.08167 25.2001L2.55667 24.8001C2.48248 24.7427 2.40859 24.6849 2.335 24.6268C1.94167 24.3134 1.96 23.6834 2.37333 23.3568L2.84 22.9951L3.40667 22.5751L4.07333 22.1051L4.83333 21.5968L5.60333 21.1118L6.29667 20.6968L6.905 20.3551L7.41667 20.0801C7.875 19.8418 8.36833 20.1401 8.41333 20.6801L8.455 21.2584L8.495 21.9501L8.51167 22.3334H23.3333C24.1743 22.3337 24.9843 22.0161 25.6009 21.4443C26.2175 20.8724 26.5953 20.0887 26.6583 19.2501L26.6667 19.0001V10.6668C26.6667 10.2247 26.8423 9.80081 27.1548 9.48825C27.4674 9.17569 27.8913 9.00009 28.3333 9.00009ZM22.63 0.0917595L23.14 0.366759L23.74 0.705093L24.07 0.900093L24.7867 1.33843L25.1683 1.58343L25.94 2.10009L26.29 2.34509L26.9183 2.80009L27.4433 3.20009L27.665 3.37343C28.0583 3.68676 28.04 4.31676 27.6267 4.64343L27.16 5.00509L26.5933 5.42509L25.9267 5.89509L25.1667 6.40343L24.3967 6.88843L23.7033 7.30343L23.095 7.64509L22.5833 7.92009C22.125 8.15843 21.63 7.86009 21.5867 7.32009L21.545 6.74176L21.505 6.05009C21.4989 5.92234 21.4933 5.79456 21.4883 5.66676H6.66667C5.78261 5.66676 4.93477 6.01795 4.30964 6.64307C3.68452 7.26819 3.33333 8.11604 3.33333 9.00009V17.3334C3.33333 17.7755 3.15774 18.1994 2.84518 18.5119C2.53262 18.8245 2.10869 19.0001 1.66667 19.0001C1.22464 19.0001 0.800716 18.8245 0.488155 18.5119C0.175595 18.1994 0 17.7755 0 17.3334V9.00009C0 7.23198 0.702379 5.53629 1.95262 4.28605C3.20286 3.03581 4.89856 2.33343 6.66667 2.33343H21.4883L21.5217 1.64176L21.5583 1.04176L21.5783 0.77676C21.6233 0.200093 22.165 -0.15324 22.63 0.0917595Z" fill="#E71C1C"/>
</svg>
